<svg width="82" height="82" viewBox="0 0 82 82" fill="none" xmlns="http://www.w3.org/2000/svg">
<path d="M41.0001 3.41669C20.2434 3.41669 3.41675 20.2433 3.41675 41C3.41675 61.7567 20.2434 78.5833 41.0001 78.5833C61.7568 78.5833 78.5834 61.7567 78.5834 41C78.5834 20.2433 61.7568 3.41669 41.0001 3.41669ZM44.1862 22.7401C45.1165 17.6795 48.6434 14.0867 52.0639 14.7155C55.4844 15.3442 57.5032 19.9564 56.5729 25.0171C55.6427 30.0777 52.1157 33.6704 48.6952 33.0417C45.2747 32.413 43.2559 27.8008 44.1862 22.7401ZM29.9362 14.7155C33.3567 14.0867 36.8837 17.6794 37.814 22.7401C38.7443 27.8008 36.7255 32.4129 33.305 33.0417C29.8845 33.6705 26.3575 30.0778 25.4273 25.0171C24.497 19.9564 26.5157 15.3443 29.9362 14.7155ZM15.9037 39.951C14.6328 36.1395 15.6909 32.3532 18.2672 31.4942C20.8435 30.6352 23.9623 33.0287 25.2332 36.8402C26.5041 40.6518 25.446 44.4381 22.8697 45.2971C20.2934 46.1561 17.1746 43.7626 15.9037 39.951ZM55.2934 66.9249C51.0199 68.28 46.1187 66.1146 43.431 64.91C41.8191 64.1876 39.7066 64.2112 38.1473 64.91C35.4595 66.1146 30.5584 68.28 26.2848 66.9249C19.4346 64.7527 18.9715 56.8033 22.9502 53.0151C27.0893 49.0742 27.8712 47.6225 29.6671 42.9861C31.6004 37.9948 36.2092 35.4913 40.8143 35.4965C45.3973 35.5016 49.9766 37.9913 51.9113 42.9863C53.7071 47.6225 54.4891 49.0743 58.628 53.0151C62.6067 56.8033 62.1437 64.7527 55.2934 66.9249ZM66.0964 39.951C64.8255 43.7626 61.7067 46.1561 59.1305 45.2971C56.5542 44.4381 55.496 40.6518 56.767 36.8402C58.0379 33.0287 61.1567 30.6352 63.7329 31.4942C66.3092 32.3532 67.3674 36.1395 66.0964 39.951Z" fill="#FFBB55"/>
</svg>
